<?xml version="1.0" encoding="utf-8"?>
<!-- Generator: Adobe Illustrator 15.0.0, SVG Export Plug-In . SVG Version: 6.00 Build 0)  -->
<!DOCTYPE svg PUBLIC "-//W3C//DTD SVG 1.1//EN" "http://www.w3.org/Graphics/SVG/1.1/DTD/svg11.dtd">
<svg version="1.1" id="Layer_1" xmlns="http://www.w3.org/2000/svg" xmlns:xlink="http://www.w3.org/1999/xlink" x="0px" y="0px"
	 width="512px" height="512px" viewBox="0 0 512 512" enable-background="new 0 0 512 512" xml:space="preserve">
<circle fill="#FFAD0A" cx="256.417" cy="248.5" r="179.488"/>
<path id="facebook-circle-icon" fill="#FFFFFF" d="M256.417,50c-113.771,0-206,92.229-206,206c0,113.771,92.229,206,206,206
	c113.771,0,206-92.229,206-206C462.417,142.229,370.188,50,256.417,50z M323.109,163.135c0,0-22.538,0-31.492,0
	c-11.116,0-13.433,4.554-13.433,16.056c0,9.572,0,27.789,0,27.789h44.925l-4.322,48.784h-40.603V401.5h-58.195V256.382h-30.264
	v-49.4h30.264c0,0,0-7.103,0-38.904c0-36.513,19.524-55.578,62.829-55.578c7.094,0,40.293,0,40.293,0v50.635H323.109z"/>
</svg>
